<mxfile host="app.diagrams.net" agent="Mozilla/5.0 (Windows NT 10.0; Win64; x64) AppleWebKit/537.36 (KHTML, like Gecko) Chrome/131.0.0.0 Safari/537.36 Edg/131.0.0.0" version="25.0.3">
  <diagram name="Página-1" id="3Zse1qAPiuCr4ka6uLad">
    <mxGraphModel dx="872" dy="481" grid="1" gridSize="10" guides="1" tooltips="1" connect="1" arrows="1" fold="1" page="1" pageScale="1" pageWidth="827" pageHeight="1169" math="0" shadow="0">
      <root>
        <mxCell id="0" />
        <mxCell id="1" parent="0" />
        <mxCell id="ugpdybbFKfr-J6y3d2cR-53" value="Cliente" style="swimlane;horizontal=0;whiteSpace=wrap;html=1;" parent="1" vertex="1">
          <mxGeometry width="810" height="370" as="geometry" />
        </mxCell>
        <mxCell id="ugpdybbFKfr-J6y3d2cR-45" value="" style="edgeStyle=none;rounded=0;orthogonalLoop=1;jettySize=auto;html=1;" parent="ugpdybbFKfr-J6y3d2cR-53" source="ugpdybbFKfr-J6y3d2cR-38" target="ugpdybbFKfr-J6y3d2cR-44" edge="1">
          <mxGeometry relative="1" as="geometry" />
        </mxCell>
        <mxCell id="ugpdybbFKfr-J6y3d2cR-38" value="Horário confirmado" style="rounded=0;whiteSpace=wrap;html=1;" parent="ugpdybbFKfr-J6y3d2cR-53" vertex="1">
          <mxGeometry x="674" y="280" width="120" height="60" as="geometry" />
        </mxCell>
        <mxCell id="ugpdybbFKfr-J6y3d2cR-47" value="" style="edgeStyle=none;rounded=0;orthogonalLoop=1;jettySize=auto;html=1;" parent="ugpdybbFKfr-J6y3d2cR-53" source="ugpdybbFKfr-J6y3d2cR-44" target="ugpdybbFKfr-J6y3d2cR-46" edge="1">
          <mxGeometry relative="1" as="geometry" />
        </mxCell>
        <mxCell id="ugpdybbFKfr-J6y3d2cR-44" value="Registrando Google Agenda" style="whiteSpace=wrap;html=1;rounded=0;" parent="ugpdybbFKfr-J6y3d2cR-53" vertex="1">
          <mxGeometry x="414" y="280" width="120" height="60" as="geometry" />
        </mxCell>
        <mxCell id="ugpdybbFKfr-J6y3d2cR-46" value="Confirmando Agendamento com Cliente" style="whiteSpace=wrap;html=1;rounded=0;" parent="ugpdybbFKfr-J6y3d2cR-53" vertex="1">
          <mxGeometry x="160" y="280" width="120" height="60" as="geometry" />
        </mxCell>
        <mxCell id="ugpdybbFKfr-J6y3d2cR-29" value="" style="edgeStyle=none;rounded=0;orthogonalLoop=1;jettySize=auto;html=1;" parent="ugpdybbFKfr-J6y3d2cR-53" source="ugpdybbFKfr-J6y3d2cR-1" target="ugpdybbFKfr-J6y3d2cR-23" edge="1">
          <mxGeometry relative="1" as="geometry" />
        </mxCell>
        <mxCell id="ugpdybbFKfr-J6y3d2cR-1" value="Inicio" style="ellipse;whiteSpace=wrap;html=1;aspect=fixed;fillColor=#d5e8d4;strokeColor=#82b366;" parent="ugpdybbFKfr-J6y3d2cR-53" vertex="1">
          <mxGeometry x="34" y="110" width="80" height="80" as="geometry" />
        </mxCell>
        <mxCell id="ugpdybbFKfr-J6y3d2cR-33" value="" style="edgeStyle=none;rounded=0;orthogonalLoop=1;jettySize=auto;html=1;" parent="ugpdybbFKfr-J6y3d2cR-53" source="ugpdybbFKfr-J6y3d2cR-23" target="ugpdybbFKfr-J6y3d2cR-32" edge="1">
          <mxGeometry relative="1" as="geometry" />
        </mxCell>
        <mxCell id="ugpdybbFKfr-J6y3d2cR-23" value="Cliente&lt;div&gt;&lt;br&gt;&lt;/div&gt;" style="shape=umlActor;verticalLabelPosition=bottom;verticalAlign=top;html=1;outlineConnect=0;" parent="ugpdybbFKfr-J6y3d2cR-53" vertex="1">
          <mxGeometry x="174" y="120" width="30" height="60" as="geometry" />
        </mxCell>
        <mxCell id="ugpdybbFKfr-J6y3d2cR-35" value="" style="edgeStyle=none;rounded=0;orthogonalLoop=1;jettySize=auto;html=1;" parent="ugpdybbFKfr-J6y3d2cR-53" source="ugpdybbFKfr-J6y3d2cR-32" target="ugpdybbFKfr-J6y3d2cR-34" edge="1">
          <mxGeometry relative="1" as="geometry" />
        </mxCell>
        <mxCell id="ugpdybbFKfr-J6y3d2cR-32" value="Acessando BarberWise" style="rounded=0;whiteSpace=wrap;html=1;" parent="ugpdybbFKfr-J6y3d2cR-53" vertex="1">
          <mxGeometry x="254" y="120" width="120" height="60" as="geometry" />
        </mxCell>
        <mxCell id="ugpdybbFKfr-J6y3d2cR-37" value="" style="edgeStyle=none;rounded=0;orthogonalLoop=1;jettySize=auto;html=1;" parent="ugpdybbFKfr-J6y3d2cR-53" source="ugpdybbFKfr-J6y3d2cR-34" edge="1">
          <mxGeometry relative="1" as="geometry">
            <mxPoint x="674" y="150" as="targetPoint" />
          </mxGeometry>
        </mxCell>
        <mxCell id="ugpdybbFKfr-J6y3d2cR-34" value="Seleciona&lt;div&gt;&amp;nbsp;Data/Hora desejada&lt;/div&gt;" style="rounded=0;whiteSpace=wrap;html=1;" parent="ugpdybbFKfr-J6y3d2cR-53" vertex="1">
          <mxGeometry x="454" y="120" width="120" height="60" as="geometry" />
        </mxCell>
        <mxCell id="ugpdybbFKfr-J6y3d2cR-43" value="NÃO" style="text;html=1;align=center;verticalAlign=middle;resizable=0;points=[];autosize=1;strokeColor=none;fillColor=none;" parent="ugpdybbFKfr-J6y3d2cR-53" vertex="1">
          <mxGeometry x="610" y="80" width="50" height="30" as="geometry" />
        </mxCell>
        <mxCell id="ugpdybbFKfr-J6y3d2cR-54" value="" style="curved=1;endArrow=classic;html=1;rounded=0;exitX=0.5;exitY=0;exitDx=0;exitDy=0;entryX=0.5;entryY=0;entryDx=0;entryDy=0;" parent="ugpdybbFKfr-J6y3d2cR-53" target="ugpdybbFKfr-J6y3d2cR-34" edge="1">
          <mxGeometry width="50" height="50" relative="1" as="geometry">
            <mxPoint x="734" y="110" as="sourcePoint" />
            <mxPoint x="760" y="60" as="targetPoint" />
            <Array as="points">
              <mxPoint x="750" y="60" />
              <mxPoint x="530" y="60" />
            </Array>
          </mxGeometry>
        </mxCell>
        <mxCell id="ugpdybbFKfr-J6y3d2cR-36" value="Verificado disponiblidade" style="rhombus;whiteSpace=wrap;html=1;rounded=0;" parent="ugpdybbFKfr-J6y3d2cR-53" vertex="1">
          <mxGeometry x="674" y="110" width="120" height="80" as="geometry" />
        </mxCell>
        <mxCell id="ugpdybbFKfr-J6y3d2cR-39" value="" style="edgeStyle=none;rounded=0;orthogonalLoop=1;jettySize=auto;html=1;" parent="ugpdybbFKfr-J6y3d2cR-53" source="ugpdybbFKfr-J6y3d2cR-36" target="ugpdybbFKfr-J6y3d2cR-38" edge="1">
          <mxGeometry relative="1" as="geometry" />
        </mxCell>
        <mxCell id="ugpdybbFKfr-J6y3d2cR-40" value="SIM" style="edgeLabel;html=1;align=center;verticalAlign=middle;resizable=0;points=[];fontSize=12;" parent="ugpdybbFKfr-J6y3d2cR-39" vertex="1" connectable="0">
          <mxGeometry x="-0.2444" y="4" relative="1" as="geometry">
            <mxPoint x="-24" as="offset" />
          </mxGeometry>
        </mxCell>
        <mxCell id="ugpdybbFKfr-J6y3d2cR-41" value="" style="edgeStyle=none;rounded=0;orthogonalLoop=1;jettySize=auto;html=1;" parent="ugpdybbFKfr-J6y3d2cR-53" source="ugpdybbFKfr-J6y3d2cR-36" target="ugpdybbFKfr-J6y3d2cR-38" edge="1">
          <mxGeometry relative="1" as="geometry" />
        </mxCell>
        <mxCell id="ugpdybbFKfr-J6y3d2cR-58" value="Barbeiro" style="swimlane;horizontal=0;whiteSpace=wrap;html=1;" parent="1" vertex="1">
          <mxGeometry y="370" width="810" height="200" as="geometry" />
        </mxCell>
        <mxCell id="ugpdybbFKfr-J6y3d2cR-62" value="" style="edgeStyle=none;rounded=0;orthogonalLoop=1;jettySize=auto;html=1;" parent="ugpdybbFKfr-J6y3d2cR-58" source="ugpdybbFKfr-J6y3d2cR-59" target="ugpdybbFKfr-J6y3d2cR-61" edge="1">
          <mxGeometry relative="1" as="geometry" />
        </mxCell>
        <mxCell id="ugpdybbFKfr-J6y3d2cR-59" value="Cliente disponível no painel" style="whiteSpace=wrap;html=1;rounded=0;" parent="ugpdybbFKfr-J6y3d2cR-58" vertex="1">
          <mxGeometry x="160" y="60" width="120" height="60" as="geometry" />
        </mxCell>
        <mxCell id="ugpdybbFKfr-J6y3d2cR-61" value="FIM" style="ellipse;whiteSpace=wrap;html=1;rounded=0;fillColor=#f8cecc;strokeColor=#b85450;" parent="ugpdybbFKfr-J6y3d2cR-58" vertex="1">
          <mxGeometry x="390" y="50" width="80" height="80" as="geometry" />
        </mxCell>
        <mxCell id="ugpdybbFKfr-J6y3d2cR-60" value="" style="edgeStyle=none;rounded=0;orthogonalLoop=1;jettySize=auto;html=1;" parent="1" source="ugpdybbFKfr-J6y3d2cR-46" target="ugpdybbFKfr-J6y3d2cR-59" edge="1">
          <mxGeometry relative="1" as="geometry" />
        </mxCell>
      </root>
    </mxGraphModel>
  </diagram>
</mxfile>
